Coordinates
version=1
nRows=19
nColumns=24
inDegrees=yes

Units are S.I. units (second, meters, Newtons, ...)
Angles are in degrees.

endheader
time	pelvis_tilt	pelvis_list	pelvis_rotation	pelvis_tx	pelvis_ty	pelvis_tz	hip_flexion_r	hip_adduction_r	hip_rotation_r	knee_angle_r	ankle_angle_r	subtalar_angle_r	mtp_angle_r	hip_flexion_l	hip_adduction_l	hip_rotation_l	knee_angle_l	ankle_angle_l	subtalar_angle_l	mtp_angle_l	lumbar_extension	lumbar_bending	lumbar_rotation
      5.34000000	     -7.62569644	     -7.68567761	      3.18590385	     -0.75082475	     -0.01469925	      2.05668736	      3.93057447	     12.63465216	     -9.85073438	     -8.51280035	      4.84364297	     -2.84057040	      9.06505791	     35.64589713	     -6.17187132	      0.98131904	    -46.22386810	     -3.66706008	     -5.99467644	     34.82222551	      4.84012163	      8.06425620	     -2.29560871
      5.35000000	     -7.79762718	     -7.42062640	      3.11253141	     -0.73935608	     -0.01562658	      2.05723650	      3.05551018	     12.46189166	     -9.83444074	     -8.04378528	      5.29662720	     -2.55761630	      9.19646580	     36.35183555	     -5.85230425	      0.36259296	    -43.46097464	     -3.54105377	     -5.40900413	     34.49397822	      4.89118568	      7.76584067	     -2.00433228
      5.36000000	     -7.82901509	     -7.14675422	      3.16692129	     -0.72781137	     -0.01658583	      2.05755099	      2.01178096	     12.27525971	     -9.94648521	     -7.53208941	      5.75782249	     -2.24566755	      9.30041931	     36.79524983	     -5.47195794	     -0.22878018	    -40.51115099	     -3.54148947	     -4.66154946	     34.15546194	      4.80743544	      7.45078725	     -1.86806146
      5.37000000	     -7.87525369	     -6.90206041	      3.26213649	     -0.71623823	     -0.01773322	      2.05774371	      1.00598136	     12.11492972	    -10.12734973	     -7.05376018	      6.22738577	     -1.92560556	      9.36230139	     37.15084205	     -5.09654723	     -0.82045408	    -37.41633555	     -3.68972249	     -3.74244331	     33.89921529	      4.74348737	      7.16034347	     -1.78932951
      5.38000000	     -7.92096699	     -6.68014593	      3.39424213	     -0.70460451	     -0.01900452	      2.05777782	      0.04129331	     11.97134190	    -10.43315123	     -6.64861446	      6.66913447	     -1.58848195	      9.37580000	     37.37820955	     -4.70351045	     -1.38650410	    -34.17584925	     -3.92024106	     -2.73872690	     33.70820409	      4.68445507	      6.89953207	     -1.74509839
      5.39000000	     -7.94027494	     -6.47258876	      3.54204612	     -0.69289448	     -0.02034364	      2.05771387	     -0.91223092	     11.83739243	    -10.82798660	     -6.32532660	      7.11909795	     -1.17180125	      9.35782166	     37.45615521	     -4.29249164	     -1.88934476	    -30.84718469	     -4.21253341	     -1.70518294	     33.49838598	      4.60082952	      6.65297205	     -1.73109455
      5.40000000	     -7.93908397	     -6.27764448	      3.70564974	     -0.68108486	     -0.02173109	      2.05751914	     -1.83017619	     11.70211256	    -11.31838242	     -6.12098730	      7.56841087	     -0.67398680	      9.32298760	     37.40184459	     -3.85317276	     -2.28904487	    -27.48813879	     -4.47685160	     -0.72946875	     33.14922730	      4.50299659	      6.42535545	     -1.74030167
      5.41000000	     -7.90495443	     -6.07418466	      3.86918107	     -0.66913776	     -0.02312015	      2.05719859	     -2.71644047	     11.53107226	    -11.89530357	     -6.06877555	      8.04301398	     -0.03285207	      9.28984665	     37.21032582	     -3.38069598	     -2.58658457	    -24.16348335	     -4.62133459	      0.15157661	     32.50374872	      4.37804496	      6.19680611	     -1.74267741
      5.42000000	     -7.85767569	     -5.84291833	      4.00413409	     -0.65704479	     -0.02449017	      2.05676619	     -3.53717589	     11.28833732	    -12.53126151	     -6.20231843	      8.55275095	      0.77915081	      9.28686642	     36.91764886	     -2.88351502	     -2.83233365	    -20.94031117	     -4.59959838	      0.95296525	     31.48649336	      4.24735256	      5.95544412	     -1.72806376
      5.43000000	     -7.72171705	     -5.59055212	      4.27587239	     -0.64478498	     -0.02578684	      2.05600903	     -4.39918723	     10.99735559	    -13.25934679	     -6.44675863	      9.00255634	      1.60426317	      9.20256255	     36.49384478	     -2.26173039	     -2.79171196	    -17.94841934	     -4.24837811	      1.71163187	     28.88019433	      4.04553275	      5.69131391	     -1.91469000
      5.44000000	     -7.87251157	     -5.30988289	      4.14449629	     -0.63231635	     -0.02722315	      2.05560628	     -4.82063305	     10.57208866	    -13.67423222	     -7.03501061	      9.50577459	      2.59220807	      9.31186470	     36.26907145	     -1.86559603	     -3.20980674	    -15.09365795	     -3.98919991	      2.51096168	     28.07280949	      4.13201695	      5.42840579	     -1.60667665
      5.45000000	     -7.75778165	     -4.91469504	      4.23190755	     -0.61959103	     -0.02833730	      2.05476758	     -5.53055414	     10.01259270	    -14.17049370	     -7.64511228	      9.89647842	      3.57444470	      9.33264867	     35.71446544	     -1.21450339	     -3.22884713	    -12.58399982	     -3.35309718	      3.16970435	     24.74684890	      3.97089291	      5.05135640	     -1.64213818
      5.46000000	     -7.85107849	     -4.60053596	      4.14936420	     -0.60673173	     -0.02964147	      2.05414583	     -5.89329224	      9.46583423	    -14.54597213	     -8.51430680	     10.23878263	      4.64968343	      9.45919611	     35.41088378	     -0.77923587	     -3.58376424	    -10.42688295	     -3.00965589	      4.02141779	     24.36809940	      4.03364996	      4.74377699	     -1.45751756
      5.47000000	     -7.70850633	     -4.15120360	      4.08780539	     -0.59357697	     -0.03059180	      2.05340473	     -6.51414286	      8.76252272	    -14.76035743	     -9.42436996	     10.42973559	      5.62958450	      9.59173148	     34.82184804	     -0.20258969	     -3.75383755	     -8.74122020	     -2.51102557	      4.51923264	     22.46932387	      3.86269741	      4.30893414	     -1.36007562
      5.48000000	     -7.82915239	     -3.87163597	      3.87763452	     -0.58021065	     -0.03183725	      2.05287066	     -6.74509694	      8.18352683	    -14.77162943	    -10.52651903	     10.48406306	      6.55307104	      9.73134457	     34.66932141	      0.10793141	     -4.11203070	     -7.76188573	     -2.05997831	      5.13985277	     22.25263477	      4.00069616	      4.02999336	     -1.13819540
      5.49000000	     -7.70585104	     -3.52120684	      3.72475096	     -0.56648254	     -0.03282281	      2.05230196	     -7.23355155	      7.52726682	    -14.78547868	    -11.66910787	     10.38648489	      7.49824599	     10.03772777	     34.32176394	      0.48602934	     -4.37129569	     -7.45703936	     -1.51515161	      5.49758391	     21.72445781	      3.91378831	      3.67120006	     -1.03525668
      5.50000000	     -7.63227235	     -3.23153965	      3.48090404	     -0.55234390	     -0.03385770	      2.05181326	     -7.62387267	      6.90371609	    -14.65356750	    -12.89039434	     10.00813857	      8.35284138	     10.82379879	     34.13136162	      0.74989364	     -4.51276632	     -7.87672725	     -0.90443986	      5.51204322	     21.17006223	      3.93585359	      3.36928181	     -0.81378821
      5.51000000	     -7.68832310	     -2.94569482	      3.21469907	     -0.53775062	     -0.03509611	      2.05140119	     -7.79299400	      6.26434595	    -14.41123324	    -14.29475616	      9.57979928	      9.05977497	     11.27198014	     34.13183579	      0.99249515	     -4.55051477	     -8.84444011	     -0.50796733	      5.14683157	     21.25168904	      4.15591873	      3.03923543	     -0.59714605
      5.52000000	     -7.56808906	     -2.69361471	      2.99084201	     -0.52295697	     -0.03621622	      2.05083534	     -8.11208718	      5.63705462	    -14.31495110	    -15.69147675	      8.53191286	      9.72356862	     14.41006029	     33.93313187	      1.22457360	     -4.37706504	    -10.13869464	     -0.34304460	      4.33062811	     21.33113895	      4.20790682	      2.75877746	     -0.42893950
